<?xml version="1.0" encoding="UTF-8"?>
<svg xmlns="http://www.w3.org/2000/svg"
     width="401" height="381"
     viewBox="0 0 401 381"
     style="background:transparent">

    <!-- Заголовок: Таблица 6 -->
    <rect x="134" y="0" width="120" height="30" rx="4.5" ry="4.5"
          fill="#dae8fc" stroke="#6c8ebf"/>
    <text x="194" y="19"
          font-family="Roboto, Arial, sans-serif"
          font-size="13" text-anchor="middle"
          font-weight="bold" fill="#000000">
        Таблица 6
    </text>

    <!-- Фон таблицы -->
    <rect x="0" y="40" width="400" height="340"
          fill="#dae8fc" stroke="#6c8ebf"/>

    <!-- ЦЕНТР: Шесть органов чувств -->
    <rect x="145" y="160" width="110" height="100" rx="15" ry="15"
          fill="#f8cecc" stroke="#b85450"/>
    <text x="200" y="190"
          font-family="Roboto, Arial, sans-serif"
          font-size="13" text-anchor="middle"
          font-weight="bold" fill="#000000">
        <tspan x="200" dy="0">ṣaḍāyatana</tspan>
        <tspan x="200" dy="18">skye-mched drug</tspan>
        <tspan x="200" dy="18">шесть органов</tspan>
        <tspan x="200" dy="14">чувств</tspan>
    </text>

    <!-- ВЕРХНИЙ ЛЕВЫЙ: Глаз -->
    <rect x="60" y="45" width="110" height="80" rx="12" ry="12"
          fill="#fff2cc" stroke="#d6b656"/>
    <text x="115" y="77"
          font-family="Roboto, Arial, sans-serif"
          font-size="13" text-anchor="middle"
          font-weight="bold" fill="#000000">
        <tspan x="115" dy="0">mig</tspan>
        <tspan x="115" dy="20">глаз</tspan>
    </text>

    <!-- ВЕРХНИЙ ПРАВЫЙ: Ухо -->
    <rect x="225" y="45" width="110" height="80" rx="12" ry="12"
          fill="#fff2cc" stroke="#d6b656"/>
    <text x="280" y="77"
          font-family="Roboto, Arial, sans-serif"
          font-size="13" text-anchor="middle"
          font-weight="bold" fill="#000000">
        <tspan x="280" dy="0">rna ba</tspan>
        <tspan x="280" dy="20">ухо</tspan>
    </text>

    <!-- НИЖНИЙ ПРАВЫЙ: Язык -->
    <rect x="225" y="295" width="110" height="80" rx="12" ry="12"
          fill="#fff2cc" stroke="#d6b656"/>
    <text x="280" y="328"
          font-family="Roboto, Arial, sans-serif"
          font-size="13" text-anchor="middle"
          font-weight="bold" fill="#000000">
        <tspan x="280" dy="0">lce</tspan>
        <tspan x="280" dy="20">язык</tspan>
    </text>

    <!-- НИЖНИЙ ЛЕВЫЙ: Тело -->
    <rect x="60" y="295" width="110" height="80" rx="12" ry="12"
          fill="#fff2cc" stroke="#d6b656"/>
    <text x="115" y="328"
          font-family="Roboto, Arial, sans-serif"
          font-size="13" text-anchor="middle"
          font-weight="bold" fill="#000000">
        <tspan x="115" dy="0">lus</tspan>
        <tspan x="115" dy="20">тело</tspan>
    </text>

    <!-- СРЕДНИЙ ЛЕВЫЙ: Ум -->
    <rect x="5" y="160" width="110" height="100" rx="15" ry="15"
          fill="#fff2cc" stroke="#d6b656"/>
    <text x="60" y="200"
          font-family="Roboto, Arial, sans-serif"
          font-size="13" text-anchor="middle"
          font-weight="bold" fill="#000000">
        <tspan x="60" dy="0">yid</tspan>
        <tspan x="60" dy="20">ум</tspan>
    </text>

    <!-- СРЕДНИЙ ПРАВЫЙ: Нос -->
    <rect x="285" y="160" width="110" height="100" rx="15" ry="15"
          fill="#fff2cc" stroke="#d6b656"/>
    <text x="340" y="200"
          font-family="Roboto, Arial, sans-serif"
          font-size="13" text-anchor="middle"
          font-weight="bold" fill="#000000">
        <tspan x="340" dy="0">sna ba</tspan>
        <tspan x="340" dy="20">нос</tspan>
    </text>

    <!-- ЛИНИИ СВЯЗИ -->

    <!-- От ума к центру -->
    <path d="M 115 210 L 145 210" fill="none" stroke="#d6b656"/>

    <!-- От носа к центру -->
    <path d="M 285 210 L 255 210" fill="none" stroke="#d6b656"/>

    <!-- От центра к глазу (диагональ) -->
    <path d="M 172.5 160 L 115 125" fill="none" stroke="#d6b656"/>

    <!-- От центра к уху (диагональ) -->
    <path d="M 227.5 160 L 280 125" fill="none" stroke="#d6b656"/>

    <!-- От глаза к центру (диагональ) -->
    <path d="M 115 295 L 172.5 260" fill="none" stroke="#d6b656"/>

    <!-- От уха к центру (диагональ) -->
    <path d="M 280 295 L 227.5 260" fill="none" stroke="#d6b656"/>

</svg>
