<?xml version="1.0" encoding="UTF-8"?>
<svg xmlns="http://www.w3.org/2000/svg" width="401" height="601" viewBox="0 0 401 601" style="background:transparent">
  <defs>
    <linearGradient id="yg" x1="0" y1="0" x2="0" y2="1">
      <stop offset="0%" stop-color="#fff2cc"/><stop offset="100%" stop-color="#ffd966"/>
    </linearGradient>
    <linearGradient id="g1" x1="0" y1="0" x2="0" y2="1">
      <stop offset="0%" stop-color="#d5e8d4"/><stop offset="100%" stop-color="#97d077"/>
    </linearGradient>
    <marker id="arrTeal" markerWidth="8" markerHeight="8" refX="7" refY="4" orient="auto">
      <path d="M0,0 L8,4 L0,8 Z" fill="#0e8088"/>
    </marker>
  </defs>

  <!-- Заголовок -->
  <rect x="140" y="0" width="120" height="29.61" rx="4.44" ry="4.44" fill="url(#yg)" stroke="#d6b656"/>
  <text x="200" y="18" font-family="Helvetica, Arial, sans-serif" font-size="12" font-weight="700" text-anchor="middle" fill="#000">Таблица 1</text>

  <!-- Фон -->
  <rect x="0" y="37.5" width="400" height="562.5" fill="#f9f7ed" stroke="#99ff99"/>

  <!-- Верхний зелёный блок -->
  <rect x="0" y="37.5" width="400" height="59.21" rx="8.88" ry="8.88" fill="url(#g1)" stroke="#82b366"/>
  <text x="200" y="65" font-family="Helvetica, Arial, sans-serif" font-size="14"
        font-weight="700" text-anchor="middle" fill="#000">
    <tspan x="200" dy="0">gang-zag-gi bdag</tspan>
    <tspan x="200" dy="18">Индивидуальное Я</tspan>
  </text>

  <!-- Левый столбец -->
  <!-- Постоянные -->
  <rect x="5" y="116.45" width="160" height="59.21" rx="8.88" ry="8.88" fill="#dae8fc" stroke="#6c8ebf"/>
  <text x="85" y="142" font-family="Helvetica, Arial, sans-serif" font-size="14"
        font-weight="700" text-anchor="middle" fill="#000">
    <tspan x="85" dy="0">rtag-pa</tspan>
    <tspan x="85" dy="18">Постоянные</tspan>
  </text>

  <!-- Постоянство всех форм -->
  <rect x="5" y="195.39" width="160" height="59.21" rx="8.88" ry="8.88" fill="#b1ddf0" stroke="#10739e"/>
  <text x="85" y="217" font-family="Helvetica, Arial, sans-serif" font-size="12"
        font-weight="700" text-anchor="middle" fill="#000">
    <tspan x="85" dy="0">rnam-pa thams-cad-pa'i</tspan>
    <tspan x="85" dy="14">rtag-pa</tspan>
    <tspan x="85" dy="14">Постоянство всех форм</tspan>
  </text>

  <!-- Случайное постоянство -->
  <rect x="5" y="274.34" width="160" height="59.21" rx="8.88" ry="8.88" fill="#b1ddf0" stroke="#10739e"/>
  <text x="85" y="296" font-family="Helvetica, Arial, sans-serif" font-size="12" font-weight="700" text-anchor="middle" fill="#000">
    <tspan x="85" dy="0">ring-dga'-pa'i rtag-pa</tspan>
    <tspan x="85" dy="14">Случайное (временное)</tspan>
    <tspan x="85" dy="14">постоянство</tspan>
  </text>

  <!-- Постоянство существования бытия -->
  <rect x="5" y="353.29" width="160" height="59.21" rx="8.88" ry="8.88" fill="#b1ddf0" stroke="#10739e"/>
  <text x="85" y="367" font-family="Helvetica, Arial, sans-serif" font-size="12"
        font-weight="700" text-anchor="middle" fill="#000">
    <tspan x="85" dy="0">yin-pa srid-pa'i rtag-pa</tspan>
    <tspan x="87" dy="13">Постоянство</tspan>
      <tspan x="85" dy="13">существования бытия</tspan>
      <tspan x="85" dy="13">(как у Будды)</tspan>
  </text>

  <!-- Невозможность изменения истинно существующего -->
  <rect x="5" y="432.24" width="160" height="98.68" rx="14.8" ry="14.8" fill="#b1ddf0" stroke="#10739e"/>
  <text x="85" y="456" font-family="Helvetica, Arial, sans-serif" font-size="12"
        font-weight="700" text-anchor="middle" fill="#000">
    <tspan x="87" dy="0">yin-pa ma-srid-pa'i 'gyur-ba</tspan>
    <tspan x="85" dy="13">(Вера в) невозможность</tspan>
    <tspan x="85" dy="13">изменения истинно</tspan>
    <tspan x="85" dy="13">существующего</tspan>
    <tspan x="85" dy="13">(как у личности)</tspan>
  </text>

  <!-- Правый столбец -->
  <!-- Бытующие -->
  <rect x="235" y="115" width="160" height="59.21" rx="8.88" ry="8.88" fill="#d5e8d4" stroke="#82b366"/>
  <text x="315" y="142" font-family="Helvetica, Arial, sans-serif" font-size="14"
        font-weight="700" text-anchor="middle" fill="#000">
    <tspan x="315" dy="0">dngos-po</tspan>
    <tspan x="315" dy="18">Бытующие</tspan>
  </text>

  <!-- Форма -->
  <rect x="235" y="193.95" width="160" height="59.21" rx="8.88" ry="8.88" fill="#b0e3e6" stroke="#0e8088"/>
  <text x="315" y="216" font-family="Helvetica, Arial, sans-serif" font-size="12" font-weight="700" text-anchor="middle" fill="#000">
    <tspan x="315" dy="0">bem-pa</tspan>
    <tspan x="315" dy="14">Форма</tspan>
  </text>

  <!-- (по)знание и психические элементы -->
  <rect x="235" y="312.37" width="160" height="59.21" rx="8.88" ry="8.88" fill="#b0e3e6" stroke="#0e8088"/>
  <text x="315" y="332" font-family="Helvetica, Arial, sans-serif" font-size="12" font-weight="700" text-anchor="middle" fill="#000">
    <tspan x="315" dy="0">shes-pa</tspan>
    <tspan x="315" dy="14">(по)знание и психические</tspan>
    <tspan x="315" dy="14">элементы</tspan>
  </text>

  <!-- Непсихические процессы... -->
  <rect x="235" y="430.79" width="160" height="118.42" rx="17.76" ry="17.76" fill="#b0e3e6" stroke="#0e8088"/>
  <text x="315" y="465" font-family="Helvetica, Arial, sans-serif" font-size="12"
        font-weight="700" text-anchor="middle" fill="#000">
    <tspan x="315" dy="0">ldan-ma-yin-pa'i 'du-byed</tspan>
    <tspan x="316" dy="14">Непсихические процессы,</tspan>
    <tspan x="315" dy="14">не связанные</tspan>
    <tspan x="315" dy="14">непосредственно с</tspan>
    <tspan x="315" dy="14">сознанием (чистые силы)</tspan>
  </text>

  <!-- Жёлтые плашки -->
  <rect x="275" y="272.89" width="120" height="29.61" rx="4.44" ry="4.44" fill="#e3c800" stroke="#b09500"/>
  <text x="335" y="291" font-family="Helvetica, Arial, sans-serif" font-size="12" font-weight="700" text-anchor="middle" fill="#000">См. табл. 3</text>

  <rect x="275" y="391.32" width="120" height="29.61" rx="4.44" ry="4.44" fill="#e3c800" stroke="#b09500"/>
  <text x="335" y="410" font-family="Helvetica, Arial, sans-serif" font-size="12" font-weight="700" text-anchor="middle" fill="#000">См. табл. 10а, 10б</text>

  <rect x="275" y="565" width="120" height="29.61" rx="4.44" ry="4.44" fill="#e3c800" stroke="#b09500"/>
  <text x="335" y="583" font-family="Helvetica, Arial, sans-serif" font-size="12" font-weight="700" text-anchor="middle" fill="#000">См. табл. 2</text>

  <!-- Связи (зелёные) -->
  <g stroke="#82b366" fill="none">
    <line x1="215" y1="144.61" x2="235" y2="144.61"/>
    <line x1="165" y1="140" x2="180" y2="140"/>
    <line x1="165" y1="225" x2="180" y2="225"/>
    <line x1="165" y1="304" x2="180" y2="304"/>
    <line x1="165" y1="380" x2="180" y2="380"/>
    <line x1="165" y1="490" x2="180" y2="490"/>
    <line x1="215" y1="223.55" x2="235" y2="223.55"/>
    <line x1="235" y1="341.97" x2="215" y2="341.97"/>
    <line x1="235" y1="490" x2="215" y2="490"/>
    <line x1="215" y1="144.61" x2="215" y2="490"/>
    <line x1="180" y1="140" x2="180" y2="490"/>
  </g>

  <!-- Короткие стрелки к жёлтым плашкам -->
  <g stroke="#0e8088" fill="#0e8088" marker-end="url(#arrTeal)">
    <line x1="355" y1="253.16" x2="355" y2="272.89"/>
    <line x1="355" y1="371.58" x2="355" y2="391.32"/>
    <line x1="355" y1="549.21" x2="355" y2="565"/>
  </g>
</svg>
