<?xml version="1.0" encoding="UTF-8"?>
<svg xmlns="http://www.w3.org/2000/svg"
     width="401" height="901"
     viewBox="0 0 401 901"
     style="background:transparent">

  <defs>
    <!-- Можно добавить градиенты/маркеры при желании -->
  </defs>

  <!-- Заголовок -->
  <rect x="140" y="0" width="120" height="30" rx="4.5" ry="4.5"
        fill="#ffcc99" stroke="#36393d" stroke-width="0.1"/>
  <text x="200" y="19"
        font-family="Helvetica, Arial, sans-serif"
        font-size="13" text-anchor="middle"
        font-weight="bold" fill="#000000">
    Таблица 3
  </text>

  <!-- РУПА -->
  <rect x="140" y="40" width="120" height="30" rx="4.5" ry="4.5"
        fill="#f5f5f5" stroke="#666666"/>
  <text x="200" y="59"
        font-family="Helvetica, Arial, sans-serif"
        font-size="14" text-anchor="middle"
        fill="#333333">
    <tspan x="200" dy="0" font-weight="bold">РУПА</tspan>
  </text>

  <!-- Фон таблицы -->
  <rect x="0" y="80" width="400" height="820"
        fill="#f9f7ed" stroke="#d7bc5b"/>

  <!-- bem-pa / gzugs / RŪPA -->
  <rect x="120" y="85" width="160" height="60" rx="9" ry="9"
        fill="#ffffff" stroke="#000000"/>
  <text x="200" y="105"
        font-family="Helvetica, Arial, sans-serif"
        font-size="13" text-anchor="middle"
        font-weight="bold" fill="#000000">
    <tspan x="200" dy="10">bem-pa или gzugs</tspan>
    <tspan x="200" dy="16">RŪPA</tspan>
  </text>

  <!-- phyi'i bem-pa -->
  <rect x="5" y="160" width="180" height="60" rx="9" ry="9"
        fill="#b1ddf0" stroke="#10739e"/>
  <text x="85" y="178"
        font-family="Helvetica, Arial, sans-serif"
        font-size="13" text-anchor="middle"
        font-weight="bold" fill="#000000">
    <tspan x="95" dy="0">phyi'i bem-pa</tspan>
    <tspan x="95" dy="18">Внешнее проявление</tspan>
    <tspan x="95" dy="14">формы (объекты чувств)</tspan>
  </text>

  <!-- nang-gi bem-pa -->
  <rect x="215" y="160" width="180" height="60" rx="9" ry="9"
        fill="#b0e3e6" stroke="#0e8088"/>
  <text x="305" y="178"
        font-family="Helvetica, Arial, sans-serif"
        font-size="13" text-anchor="middle"
        font-weight="bold" fill="#000000">
    <tspan x="305" dy="0">nang-gi bem-pa</tspan>
    <tspan x="305" dy="18">Внутреннее проявление</tspan>
    <tspan x="305" dy="14">формы (органы чувств)</tspan>
  </text>

  <!-- См. табл. 9 -->
  <rect x="260" y="240" width="120" height="30" rx="4.5" ry="4.5"
        fill="#dae8fc" stroke="#6c8ebf"/>
  <text x="320" y="259"
        font-family="Helvetica, Arial, sans-serif"
        font-size="12" text-anchor="middle"
        font-weight="bold" fill="#000000">
    См. табл. 9
  </text>

  <!-- gzugs-kyi skye-mched -->
  <rect x="20" y="240" width="110" height="60" rx="9" ry="9"
        fill="#d5e8d4" stroke="#82b366"/>
  <text x="75" y="252"
        font-family="Helvetica, Arial, sans-serif"
        font-size="12" text-anchor="middle"
        font-weight="bold" fill="#000000">
    <tspan x="75" dy="0">gzugs-kyi</tspan>
     <tspan x="75" dy="14">skye-mched</tspan>
    <tspan x="75" dy="16">Видимое</tspan>
    <tspan x="75" dy="14">рупа-аятана</tspan>
  </text>

  <!-- sgra'i skye-mched -->
  <rect x="20" y="320" width="110" height="60" rx="9" ry="9"
        fill="#d5e8d4" stroke="#82b366"/>
  <text x="75" y="338"
        font-family="Helvetica, Arial, sans-serif"
        font-size="12" text-anchor="middle"
        font-weight="bold" fill="#000000">
    <tspan x="75" dy="0">sgra'i skye-mched</tspan>
    <tspan x="75" dy="18">Слышимое</tspan>
    <tspan x="75" dy="14">шабда-аятана</tspan>
  </text>

  <!-- dri'i skye-mched -->
  <rect x="20" y="400" width="110" height="60" rx="9" ry="9"
        fill="#d5e8d4" stroke="#82b366"/>
  <text x="75" y="418"
        font-family="Helvetica, Arial, sans-serif"
        font-size="12" text-anchor="middle"
        font-weight="bold" fill="#000000">
    <tspan x="75" dy="0">dri'i skye-mched</tspan>
    <tspan x="75" dy="18">Обоняемое</tspan>
    <tspan x="75" dy="14">гандха-аятана</tspan>
  </text>

  <!-- ro'i skye-mched -->
  <rect x="20" y="480" width="110" height="60" rx="9" ry="9"
        fill="#d5e8d4" stroke="#82b366"/>
  <text x="75" y="498"
        font-family="Helvetica, Arial, sans-serif"
        font-size="12" text-anchor="middle"
        font-weight="bold" fill="#000000">
    <tspan x="75" dy="0">ro'i skye-mched</tspan>
    <tspan x="75" dy="18">Вкушаемое</tspan>
    <tspan x="75" dy="14">раса-аятана</tspan>
  </text>

  <!-- reg-bya'i skye-mched -->
  <rect x="20" y="560" width="110" height="60" rx="9" ry="9"
        fill="#d5e8d4" stroke="#82b366"/>
  <text x="75" y="570"
        font-family="Helvetica, Arial, sans-serif"
        font-size="12" text-anchor="middle"
        font-weight="bold" fill="#000000">
    <tspan x="75" dy="0">reg-bya'i</tspan>
      <tspan x="75" dy="14">skye-mched</tspan>
    <tspan x="75" dy="18">Осязаемое</tspan>
    <tspan x="75" dy="14">спарша-аятана</tspan>
  </text>

  <!-- bum-pa'i skye-mched -->
  <rect x="20" y="640" width="110" height="60" rx="9" ry="9"
        fill="#d5e8d4" stroke="#82b366"/>
  <text x="75" y="658"
        font-family="Helvetica, Arial, sans-serif"
        font-size="12" text-anchor="middle"
        font-weight="bold" fill="#000000">
    <tspan x="75" dy="0">bum-pa'i</tspan>
      <tspan x="75" dy="14">skye-mched</tspan>
    <tspan x="75" dy="18">Сложная форма</tspan>
  </text>

  <!-- ka-ba'i skye-mched -->
  <rect x="20" y="720" width="110" height="60" rx="9" ry="9"
        fill="#d5e8d4" stroke="#82b366"/>
  <text x="75" y="738"
        font-family="Helvetica, Arial, sans-serif"
        font-size="12" text-anchor="middle"
        font-weight="bold" fill="#000000">
    <tspan x="75" dy="0">ka-ba'i</tspan>
    <tspan x="75" dy="14">skye-mched</tspan>
    <tspan x="75" dy="18">Простая форма</tspan>
  </text>

  <!-- sa-chu-me-rlung-gi skye-mched -->
  <rect x="20" y="795" width="110" height="100" rx="15" ry="15"
        fill="#d5e8d4" stroke="#82b366"/>
  <text x="75" y="813"
        font-family="Helvetica, Arial, sans-serif"
        font-size="12" text-anchor="middle"
        font-weight="bold" fill="#000000">
    <tspan x="75" dy="0">sa-chu-me-rlung</tspan>
      <tspan x="75" dy="14">gi skye-mched</tspan>
    <tspan x="75" dy="18">Четыре</tspan>
    <tspan x="75" dy="14">махабхуты:</tspan>
      <tspan x="75" dy="14">земля, вода,</tspan>
      <tspan x="75" dy="14">огонь, воздух</tspan>
  </text>

  <!-- kha-mdog -->
  <rect x="190" y="280" width="160" height="60" rx="9" ry="9"
        fill="#f8cecc" stroke="#b85450"/>
  <text x="270" y="298"
        font-family="Helvetica, Arial, sans-serif"
        font-size="13" text-anchor="middle"
        font-weight="bold" fill="#000000">
    <tspan x="270" dy="0">kha-mdog</tspan>
    <tspan x="270" dy="18">Цвета (все</tspan>
    <tspan x="270" dy="14">разновидности цвета)</tspan>
  </text>

  <!-- gzugs (пространственная форма) -->
  <rect x="190" y="360" width="160" height="60" rx="9" ry="9"
        fill="#ffe6cc" stroke="#d79b00"/>
  <text x="270" y="375"
        font-family="Helvetica, Arial, sans-serif"
        font-size="13" text-anchor="middle"
        font-weight="bold" fill="#000000">
    <tspan x="270" dy="0">gzugs</tspan>
    <tspan x="270" dy="18">Пространственная</tspan>
      <tspan x="270" dy="18">форма</tspan>
  </text>

  <!-- mtho-pa'i gzugs -->
  <rect x="140" y="480" width="120" height="60" rx="9" ry="9"
        fill="#fff2cc" stroke="#d6b656"/>
  <text x="200" y="505"
        font-family="Helvetica, Arial, sans-serif"
        font-size="12" text-anchor="middle"
        font-weight="bold" fill="#000000">
    <tspan x="200" dy="0">mtho-pa'i gzugs</tspan>
    <tspan x="200" dy="20">Высокое</tspan>
  </text>

  <!-- dma'-ba'i gzugs -->
  <rect x="140" y="560" width="120" height="60" rx="9" ry="9"
        fill="#fff2cc" stroke="#d6b656"/>
  <text x="200" y="585"
        font-family="Helvetica, Arial, sans-serif"
        font-size="12" text-anchor="middle"
        font-weight="bold" fill="#000000">
    <tspan x="200" dy="0">dma'-ba'i gzugs</tspan>
    <tspan x="200" dy="20">Низкое</tspan>
  </text>

  <!-- ring-po'i gzugs -->
  <rect x="140" y="640" width="120" height="60" rx="9" ry="9"
        fill="#fff2cc" stroke="#d6b656"/>
  <text x="200" y="665"
        font-family="Helvetica, Arial, sans-serif"
        font-size="12" text-anchor="middle"
        font-weight="bold" fill="#000000">
    <tspan x="200" dy="0">ring-po'i gzugs</tspan>
    <tspan x="200" dy="20">Длинное</tspan>
  </text>

  <!-- thung-ngu'i gzugs -->
  <rect x="140" y="720" width="120" height="120" rx="18" ry="18"
        fill="#fff2cc" stroke="#d6b656"/>
  <text x="200" y="770"
        font-family="Helvetica, Arial, sans-serif"
        font-size="12" text-anchor="middle"
        font-weight="bold" fill="#000000">
    <tspan x="200" dy="0">thung-ngu'i gzugs</tspan>
    <tspan x="200" dy="20">Короткое</tspan>
  </text>

  <!-- grub-bzhi-ba'i gzugs -->
  <rect x="274" y="480" width="120" height="60" rx="9" ry="9"
        fill="#fff2cc" stroke="#d6b656"/>
  <text x="334" y="505"
        font-family="Helvetica, Arial, sans-serif"
        font-size="11.5" text-anchor="middle"
        font-weight="bold" fill="#000000">
    <tspan x="334" dy="0">grub-bzhi-ba'i gzugs</tspan>
    <tspan x="334" dy="20">Квадратное</tspan>
  </text>

  <!-- zlum-po'i gzugs -->
  <rect x="274" y="560" width="120" height="60" rx="9" ry="9"
        fill="#fff2cc" stroke="#d6b656"/>
  <text x="334" y="585"
        font-family="Helvetica, Arial, sans-serif"
        font-size="12" text-anchor="middle"
        font-weight="bold" fill="#000000">
    <tspan x="334" dy="0">zlum-po'i gzugs</tspan>
    <tspan x="334" dy="20">Круглое</tspan>
  </text>

  <!-- phya li-pa'i gzugs -->
  <rect x="274" y="640" width="120" height="60" rx="9" ry="9"
        fill="#fff2cc" stroke="#d6b656"/>
  <text x="334" y="665"
        font-family="Helvetica, Arial, sans-serif"
        font-size="12" text-anchor="middle"
        font-weight="bold" fill="#000000">
    <tspan x="334" dy="0">phya li-pa'i gzugs</tspan>
    <tspan x="334" dy="20">Многоугольное</tspan>
  </text>

  <!-- phya li ma-yin-pa'i gzugs -->
  <rect x="274" y="720" width="120" height="120" rx="18" ry="18"
        fill="#fff2cc" stroke="#d6b656"/>
  <text x="334" y="740"
        font-family="Helvetica, Arial, sans-serif"
        font-size="12" text-anchor="middle"
        font-weight="bold" fill="#000000">
    <tspan x="334" dy="0">phya li ma-yin-pa'i</tspan>
      <tspan x="334" dy="14">gzugs</tspan>
    <tspan x="334" dy="18">Безграничное</tspan>
      <tspan x="334" dy="14">(бесформенное)</tspan>
    <tspan x="334" dy="14">состояние вне</tspan>
    <tspan x="334" dy="14">пространственных</tspan>
      <tspan x="334" dy="14">характеристик</tspan>
  </text>

  <!-- ЛИНИИ / СВЯЗИ — точно как в исходном файле -->

  <!-- от phyi'i bem-pa к центральному bem-pa -->
  <path d="M 85 160 L 200 145"
        fill="none" stroke="#000000"/>

  <!-- от nang-gi bem-pa к центральному bem-pa -->
  <path d="M 315 160 L 196.48 144.52"
        fill="none" stroke="#000000"/>

  <!-- от 'См. табл. 9' к nang-gi bem-pa -->
  <path d="M 320 240 L 315 220"
        fill="none" stroke="#0e7e86"/>

  <!-- от gzugs-kyi skye-mched к kha-mdog -->
  <path d="M 130 270 L 190 310"
        fill="none" stroke="#76b365"/>

  <!-- от gzugs-kyi skye-mched к gzugs (пространственная форма) -->
  <path d="M 130 270 L 190 390"
        fill="none" stroke="#7fb668"/>

  <!-- центральная левая вертикаль -->
  <path d="M 10 850 L 10 230"
        fill="none" stroke="#00ac00"/>

  <!-- короткая от phyi'i bem-pa к вертикали -->
  <path d="M 89.96 220.24 L 90 230"
        fill="none" stroke="#82b366"/>

  <!-- горизонталь от 90 к 10 -->
  <path d="M 90 230 L 10 230"
        fill="none" stroke="#82b366"/>

  <!-- от вертикали к gzugs-kyi skye-mched -->
  <path d="M 10 270 L 20 270"
        fill="none" stroke="#82b366"/>

  <!-- от sgra'i skye-mched к вертикали -->
  <path d="M 20 350 L 10 350"
        fill="none" stroke="#82b366"/>

  <!-- от dri'i skye-mched к вертикали -->
  <path d="M 20 430 L 10 430"
        fill="none" stroke="#82b366"/>

  <!-- от вертикали к ro'i skye-mched -->
  <path d="M 10 510 L 20 510"
        fill="none" stroke="#82b366"/>

  <!-- от вертикали к reg-bya'i skye-mched -->
  <path d="M 10 590 L 20 590"
        fill="none" stroke="#82b366"/>

  <!-- от bum-pa'i skye-mched к вертикали -->
  <path d="M 20 670 L 10 670"
        fill="none" stroke="#82b366"/>

  <!-- от ka-ba'i skye-mched к вертикали -->
  <path d="M 20 750 L 10 750"
        fill="none" stroke="#82b366"/>

  <!-- нижняя точка вертикали к sa-chu-me-rlung-gi skye-mched -->
  <path d="M 10 850 L 19.23 850.3"
        fill="none" stroke="#82b366"/>

  <!-- от phya li ma-yin-pa'i gzugs вверх к gzugs (пространств. форма) -->
  <path d="M 267 780 L 266.22 420"
        fill="none" stroke="#d7bc5b"/>

  <!-- от mtho-pa'i gzugs к grub-bzhi-ba'i gzugs -->
  <path d="M 260 510 L 274 510"
        fill="none" stroke="#d6b656"/>

  <!-- от dma'-ba'i gzugs к zlum-po'i gzugs -->
  <path d="M 260 590 L 274 590"
        fill="none" stroke="#d6b656"/>

  <!-- от ring-po'i gzugs к phya li-pa'i gzugs -->
  <path d="M 260 670 L 274 670"
        fill="none" stroke="#d6b656"/>

  <!-- от thung-ngu'i gzugs к phya li ma-yin-pa'i gzugs -->
  <path d="M 260 780 L 274 780"
        fill="none" stroke="#d6b656"/>

</svg>
